# xmcd
#
# Track frame offsets: 
#        150
#        9961
#        27964
#        40730
#        53568
#        67424
#        79319
#        98649
#        109080
#        123028
#        137891
#        149759
#        164164
#        176233
#        193568
#
# Disc length: 2892 seconds
#
# Revision: 1
# Processed by: cddbd v1.5.2PL0 Copyright (c) Steve Scherf et al.
# Submitted via: ExactAudioCopyFreeDBPlugin 1.0
#
DISCID=d60b4a0f
DTITLE=The Riverside Singers - Spirituals and gospel Songs - Vol 5
DYEAR=2008
DGENRE=Gospel
TTITLE0=I'm So Glad
TTITLE1=I Shall Not Be Moved
TTITLE2=Little David
TTITLE3=John The Revelator
TTITLE4=Listen To The Lambs
TTITLE5=Toll The Bell Easy
TTITLE6=Peace In The Valley
TTITLE7=Farewell
TTITLE8=Trouble Don't Last Always
TTITLE9=Lazy River
TTITLE10=This Old Hammer
TTITLE11=Sixteen Tons
TTITLE12=Li'l Darlin
TTITLE13=Blueberry Hill
TTITLE14=In The Upper Room
EXTD=
EXTT0=
EXTT1=
EXTT2=
EXTT3=
EXTT4=
EXTT5=
EXTT6=
EXTT7=
EXTT8=
EXTT9=
EXTT10=
EXTT11=
EXTT12=
EXTT13=
EXTT14=
PLAYORDER=
